<?xml version="1.0" standalone="no"?>
<!DOCTYPE svg PUBLIC "-//W3C//DTD SVG 20010904//EN"
 "http://www.w3.org/TR/2001/REC-SVG-20010904/DTD/svg10.dtd">
<svg version="1.0" xmlns="http://www.w3.org/2000/svg"
 width="100%" height="100%" viewBox="0 0 368.000000 175.000000"
 preserveAspectRatio="xMidYMid meet">

<g transform="translate(0.000000,175.000000) scale(0.100000,-0.100000)"
fill="#000000" stroke="none">
<path d="M2277 1399 c-90 -22 -206 -73 -293 -129 -57 -38 -94 -50 -94 -32 0
14 60 95 87 118 26 22 24 44 -3 44 -7 0 -40 -39 -71 -86 l-57 -85 -112 7
c-124 7 -264 -2 -264 -18 0 -7 34 -9 93 -7 50 1 134 2 185 1 l93 -2 -22 -32
c-12 -18 -105 -115 -208 -216 l-186 -183 -22 28 c-13 15 -23 37 -23 49 0 29
82 107 147 141 50 26 70 53 40 53 -36 0 -147 -93 -302 -252 -167 -171 -219
-217 -232 -204 -12 11 16 97 57 181 53 107 224 367 288 438 48 52 72 100 59
113 -10 11 -25 -5 -160 -174 -186 -230 -242 -293 -313 -350 -112 -89 -159 -93
-135 -10 28 94 167 321 258 420 64 70 85 133 39 115 -17 -7 -224 -316 -279
-417 -45 -82 -70 -158 -62 -187 19 -77 195 42 374 252 48 56 40 35 -25 -66
-72 -110 -127 -234 -132 -295 -4 -51 -3 -54 19 -54 38 0 76 31 200 162 l115
122 32 -34 c17 -19 32 -39 32 -43 0 -10 -31 -38 -170 -151 -133 -107 -180
-157 -180 -190 0 -87 138 -31 286 114 86 84 116 137 113 190 -3 41 -2 42 154
194 87 84 156 150 155 147 -164 -318 -227 -472 -187 -459 7 2 17 22 21 44 4
21 56 135 115 253 77 156 118 225 146 253 23 22 32 36 21 32 -11 -4 -16 -3
-11 2 10 10 11 11 140 13 63 0 96 5 92 11 -3 6 -36 10 -72 10 -56 0 -64 2 -53
15 22 26 214 115 294 135 95 24 236 26 316 5 135 -36 274 -140 372 -279 54
-78 56 -70 -27 -96 -22 -7 -65 -32 -97 -55 -100 -77 -279 -172 -300 -159 -12
8 -1 72 18 101 39 62 1 56 -110 -16 -118 -75 -152 -93 -179 -89 -37 5 -31 35
19 89 53 55 113 95 170 110 32 9 39 8 60 -12 21 -20 24 -20 30 -5 18 46 -66
61 -143 26 -24 -10 -109 -57 -190 -104 -211 -120 -284 -156 -319 -156 -45 0
-59 20 -44 64 19 58 47 86 86 86 74 0 199 94 192 143 -5 33 -58 35 -112 3 -60
-35 -154 -140 -184 -205 -29 -63 -23 -100 19 -115 52 -18 92 -1 364 159 l49
30 -27 -37 c-19 -24 -27 -46 -25 -64 8 -65 74 -56 196 26 l87 60 3 -54 c5 -93
30 -94 174 -12 l77 44 -5 -27 c-7 -35 19 -64 50 -55 27 8 127 75 189 126 26
22 47 37 47 34 0 -4 -24 -41 -54 -84 -60 -87 -75 -112 -86 -153 -7 -22 -5 -29
5 -29 7 0 27 30 44 68 31 65 110 192 121 192 3 0 23 -35 45 -77 111 -214 272
-336 437 -332 l53 1 -63 9 c-180 26 -300 125 -411 339 -35 66 -41 86 -33 104
5 11 47 64 94 116 139 157 205 250 192 271 -10 17 -57 -35 -156 -171 -88 -120
-146 -190 -158 -190 -3 0 -34 41 -69 91 -116 163 -272 278 -419 308 -78 16
-197 12 -285 -10z m-187 -373 c0 -40 -80 -99 -152 -112 l-33 -7 35 37 c39 42
117 96 137 96 7 0 13 -6 13 -14z m934 -35 c10 -16 -204 -171 -236 -171 -54 0
19 95 117 151 48 28 108 38 119 20z m-1618 -325 c-48 -81 -225 -227 -303 -251
-19 -5 -23 -3 -23 17 0 27 25 53 145 149 44 35 107 88 140 118 54 48 60 51 63
32 2 -12 -8 -41 -22 -65z"/>
<path d="M433 1341 c-10 -11 -63 -108 -117 -215 l-99 -194 -96 -7 c-109 -7
-121 -10 -121 -26 0 -9 26 -10 100 -5 55 3 100 4 100 0 0 -3 -22 -56 -50 -118
-58 -130 -70 -176 -47 -176 15 0 19 8 60 130 14 41 35 96 47 122 23 53 19 52
203 64 l98 6 -45 -89 c-61 -122 -156 -350 -156 -375 0 -46 26 -5 61 96 34 98
130 306 161 349 10 13 33 19 95 24 l83 6 -35 -69 c-39 -75 -51 -149 -25 -149
8 0 15 9 16 20 1 11 2 32 3 46 0 14 19 55 41 92 22 36 40 69 40 72 0 4 -43 5
-95 3 -52 -1 -95 -1 -95 2 0 10 117 199 154 248 19 26 48 60 65 76 35 34 39
46 13 46 -33 0 -83 -66 -203 -265 l-66 -110 -133 -7 c-74 -5 -135 -6 -138 -3
-8 7 126 253 208 382 21 33 -1 52 -27 24z"/>
<path d="M814 1125 c-22 -34 -13 -40 26 -20 26 13 29 19 19 31 -16 20 -26 18
-45 -11z"/>
</g>
</svg>
