<?xml version="1.0" encoding="UTF-8" standalone="no" ?>
<!DOCTYPE svg PUBLIC "-//W3C//DTD SVG 1.1//EN" "http://www.w3.org/Graphics/SVG/1.1/DTD/svg11.dtd">
<svg xmlns="http://www.w3.org/2000/svg" xmlns:xlink="http://www.w3.org/1999/xlink" version="1.1" width="250" height="250" viewBox="0 0 250 250" xml:space="preserve">
<desc>Created with Fabric.js 4.6.0</desc>
<defs>
</defs>
<g transform="matrix(1 0 0 1 125 116.67)" id="IHNV-yZMtk9jWSpdX2XO3"  >
<g style="" vector-effect="non-scaling-stroke"   >
		<g transform="matrix(0.13 0 0 -0.13 0.67 -46)" id="shDuZAWBy8VYB3T4PURSr"  >
<path style="stroke: none; stroke-width: 1; stroke-dasharray: none; stroke-linecap: butt; stroke-dashoffset: 0; stroke-linejoin: miter; stroke-miterlimit: 4; fill: rgb(0,0,0); fill-rule: nonzero; opacity: 1;" vector-effect="non-scaling-stroke"  transform=" translate(-625, -960)" d="M 120 976 C 120 946 117 915 114 906 C 108 892 158 890 625 890 C 1092 890 1142 892 1136 906 C 1133 915 1130 946 1130 976 L 1130 1030 L 625 1030 L 120 1030 L 120 976 z" stroke-linecap="round" />
</g>
		<g transform="matrix(0.13 0 0 -0.13 0.92 2)" id="f_EmZXrhSSFRDmdQcRVCP"  >
<path style="stroke: none; stroke-width: 1; stroke-dasharray: none; stroke-linecap: butt; stroke-dashoffset: 0; stroke-linejoin: miter; stroke-miterlimit: 4; fill: rgb(0,0,0); fill-rule: nonzero; opacity: 1;" vector-effect="non-scaling-stroke"  transform=" translate(-626.89, -600)" d="M 119 666 C 117 664 117 632 118 596 L 122 530 L 626 530 L 1130 530 L 1130 584 C 1130 614 1133 645 1136 654 C 1142 668 1093 670 633 670 C 353 670 121 668 119 666 z" stroke-linecap="round" />
</g>
		<g transform="matrix(0.13 0 0 -0.13 0.67 50)" id="zrcwPBXVbegUfUkodp4JY"  >
<path style="stroke: none; stroke-width: 1; stroke-dasharray: none; stroke-linecap: butt; stroke-dashoffset: 0; stroke-linejoin: miter; stroke-miterlimit: 4; fill: rgb(0,0,0); fill-rule: nonzero; opacity: 1;" vector-effect="non-scaling-stroke"  transform=" translate(-625, -240)" d="M 117 303 C 113 300 110 268 110 233 L 110 170 L 625 170 L 1140 170 L 1140 240 L 1140 310 L 632 310 C 352 310 120 307 117 303 z" stroke-linecap="round" />
</g>
</g>
</g>
</svg>